<svg width="452" height="952" viewBox="0 0 452 952" fill="none" xmlns="http://www.w3.org/2000/svg">
<path d="M448 408H450C450.552 408 451 408.448 451 409V521C451 521.552 450.552 522 450 522H448V408Z" fill="#90BFE5"/>
<path d="M448 301H450C450.552 301 451 301.448 451 302V358C451 358.552 450.552 359 450 359H448V301Z" fill="#90BFE5"/>
<path fill-rule="evenodd" clip-rule="evenodd" d="M51 0C22.8335 0 0 22.833 0 51V901C0 929.167 22.8335 952 51 952H397C425.167 952 448 929.167 448 901V51C448 22.833 425.167 0 397 0H51ZM52 6C26.595 6 6 26.5947 6 52V902C6 927.405 26.595 948 52 948H396C421.405 948 442 927.405 442 902V52C442 26.5947 421.405 6 396 6H52Z" fill="#7FACD0"/>
<path fill-rule="evenodd" clip-rule="evenodd" d="M52 6C26.595 6 6 26.5947 6 52V902C6 927.405 26.595 948 52 948H396C421.405 948 442 927.405 442 902V52C442 26.5947 421.405 6 396 6H52ZM21.9238 38.6562C18 46.3574 18 56.4385 18 76.5996V876.4C18 896.562 18 906.643 21.9238 914.344C25.3752 921.117 30.8826 926.625 37.6562 930.076C45.3572 934 55.4382 934 75.6001 934H372.4C392.562 934 402.643 934 410.344 930.076C417.117 926.625 422.625 921.117 426.076 914.344C430 906.643 430 896.562 430 876.4V76.5996C430 56.4385 430 46.3574 426.076 38.6562C422.625 31.8828 417.117 26.375 410.344 22.9238C402.643 19 392.562 19 372.4 19H75.6001C55.438 19 45.3572 19 37.6562 22.9238C30.8826 26.375 25.3752 31.8828 21.9238 38.6562Z" fill="#1C1C1C"/>
<rect x="220" width="8" height="6" fill="#668EAA"/>
<rect y="224" width="6" height="7" fill="#668EAA"/>
<rect y="864" width="6" height="7" fill="#668EAA"/>
<rect x="442" y="224" width="6" height="7" fill="#668EAA"/>
<rect x="442" y="864" width="6" height="7" fill="#668EAA"/>
<rect x="272" y="948" width="8" height="4" fill="#668EAA"/>
<circle cx="224" cy="41" r="13" fill="#1B1B1B"/>
<circle cx="224" cy="41" r="7" fill="#242424"/>
</svg>
